<?xml version="1.0" standalone="no"?>
<!DOCTYPE svg PUBLIC "-//W3C//DTD SVG 20010904//EN"
 "http://www.w3.org/TR/2001/REC-SVG-20010904/DTD/svg10.dtd">
<svg version="1.0" xmlns="http://www.w3.org/2000/svg"
 width="700.000000pt" height="700.000000pt" viewBox="0 0 700.000000 700.000000"
 preserveAspectRatio="xMidYMid meet">
<metadata>
Created by potrace 1.11, written by Peter Selinger 2001-2013
</metadata>
<g transform="translate(0.000000,700.000000) scale(0.100000,-0.100000)"
fill="#000000" stroke="none">
<path d="M2189 6988 c-1 -7 -2 -506 -3 -1108 -2 -840 -5 -1105 -15 -1140 -17
-59 -129 -388 -176 -515 -134 -357 -172 -478 -190 -590 -13 -88 -13 -212 1
-292 17 -101 92 -332 148 -456 71 -158 159 -412 185 -532 46 -215 47 -239 46
-1327 l-2 -1028 1318 0 1317 0 0 438 -1 437 -872 -2 c-815 -2 -873 -1 -877 15
-4 16 -3 477 1 947 0 105 -1 199 -3 210 -2 11 -7 52 -10 90 -4 39 -9 77 -12
86 -3 10 -6 30 -8 45 -20 149 -97 376 -206 609 -146 312 -185 579 -125 866 47
223 168 478 269 567 73 64 64 62 439 65 414 2 400 -1 458 119 17 35 42 143 64
273 13 77 17 338 8 438 l-5 47 -429 0 c-336 0 -429 3 -430 13 0 6 -1 204 -2
440 -2 421 -2 427 18 428 11 0 404 1 873 1 l852 1 1 21 c1 12 2 207 3 433 l1
413 -1317 0 c-1047 0 -1318 -3 -1319 -12z"/>
</g>
</svg>
